<svg id="Layer_1" data-name="Layer 1" xmlns="http://www.w3.org/2000/svg" viewBox="0 0 340.16 340.16"><defs><style>.cls-1{fill:#fff;stroke:#000;stroke-miterlimit:10;stroke-width:4px;}</style></defs><title>off-logo-brand</title><circle class="cls-1" cx="170.08" cy="170.08" r="141.73"/><polygon points="74.56 218.38 62.6 238.88 277.56 238.88 265.6 218.38 74.56 218.38"/><polygon points="88.33 194.76 76.37 215.27 263.79 215.27 251.82 194.76 88.33 194.76"/><polygon points="238.05 171.16 102.11 171.16 90.14 191.66 250.01 191.66 238.05 171.16"/><polygon points="224.28 147.54 115.88 147.54 103.92 168.05 236.24 168.05 224.28 147.54"/><polygon points="222.47 144.44 210.5 123.94 129.65 123.94 117.69 144.44 222.47 144.44"/><polygon points="157.2 76.71 145.23 97.22 157.75 97.22 191.14 90.73 182.96 76.71 157.2 76.71"/><polygon points="170.08 54.63 159 73.61 181.15 73.61 170.08 54.63"/></svg>